<?xml version="1.0" encoding="UTF-8" standalone="no"?>
<svg
   xmlns:dc="http://purl.org/dc/elements/1.1/"
   xmlns:cc="http://creativecommons.org/ns#"
   xmlns:rdf="http://www.w3.org/1999/02/22-rdf-syntax-ns#"
   xmlns:svg="http://www.w3.org/2000/svg"
   xmlns="http://www.w3.org/2000/svg"
   xmlns:sodipodi="http://sodipodi.sourceforge.net/DTD/sodipodi-0.dtd"
   xmlns:inkscape="http://www.inkscape.org/namespaces/inkscape"
   inkscape:version="1.0 (4035a4fb49, 2020-05-01)"
   sodipodi:docname="pret_en_cours.svg"
   xml:space="preserve"
   style="enable-background:new 0 0 500 500;"
   viewBox="0 0 500 500"
   y="0px"
   x="0px"
   id="Calque_1"
   version="1.1"><metadata
   id="metadata11"><rdf:RDF><cc:Work
       rdf:about=""><dc:format>image/svg+xml</dc:format><dc:type
         rdf:resource="http://purl.org/dc/dcmitype/StillImage" /><dc:title></dc:title></cc:Work></rdf:RDF></metadata><defs
   id="defs9" /><sodipodi:namedview
   inkscape:current-layer="Calque_1"
   inkscape:window-maximized="1"
   inkscape:window-y="-8"
   inkscape:window-x="-8"
   inkscape:cy="250"
   inkscape:cx="250"
   inkscape:zoom="1.506"
   showgrid="false"
   id="namedview7"
   inkscape:window-height="1137"
   inkscape:window-width="1920"
   inkscape:pageshadow="2"
   inkscape:pageopacity="0"
   guidetolerance="10"
   gridtolerance="10"
   objecttolerance="10"
   borderopacity="1"
   bordercolor="#666666"
   pagecolor="#000000" />
<style
   id="style2"
   type="text/css">
	.st0{fill:#029543;}
</style>
<path
   style="fill:#ffffff;fill-opacity:1"
   id="path4"
   d="M432.8,209.5c-0.4-14.3-5.5-26.1-15.1-35l-0.1-0.1c-0.8-0.7-8.6-7.1-22.2-7.1c-17,0-33.3,9.9-47,22.2  c3.7-5.5,5.7-9.7,6.2-10.9c14-27.6,15.3-53.8,13.9-71c-1.3-16-5.1-27.3-6.3-30.6C355,35.5,323.8,26.5,304.8,25v-0.3h-13.4V25  c-3.6,0.3-6.2,0.7-7.3,0.9c-26.3,1.6-46.7,11-60.5,28c-13.3,16.2-17.8,36.3-19.2,50.2c-1.4,14.3-0.1,25.4,0.1,26.6l5,17.6  c-0.4,3-0.5,6-0.2,9.1c-4.7-4.7-8.8-8-10.8-9.4c-19.1-28.7-49-62.8-83.6-62.8c-13.8,0-22,5.6-22.9,6.2l-0.1,0.1  c-13.5,10.2-21.6,24.5-23.9,42.5c-1.8,13.7-0.2,29.6,4.7,47.1c7.8,27.6,21.6,51.1,23.1,53.6c18.8,39.7,36.3,45.6,45.1,45.6  c2.2,0,3.8-0.4,4.4-0.6l22.4-8c3.8-1.3,7.5-2,10.9-2c10.7,0,15.8,6.8,16,7.1l0.3,0.4c13,16.6,36.6,59.6,50.1,85h-8.9h-36.1  c-2.5,0-4.8,1.1-6.3,3c-1.6,1.9-2.2,4.3-1.8,6.8l18.1,96.7c0.7,3.9,4.1,6.7,8,6.7h96.7c3.9,0,7.3-2.8,8.1-6.7l18.1-96.7  c0.5-2.4-0.2-4.9-1.8-6.8s-3.9-3-6.3-3h-46.5h-13.9H271l53.7-48.1c3.3-4.1,7.7-6.2,13-6.2c3.2,0,5.8,0.8,6.6,1l16,7.6l0.2,0.1  c0.9,0.4,2.7,1,5.5,1c8.4,0,21.8-5.6,37.8-32.1c1.4-1.9,13.6-19.2,21.5-39.8C430.6,232.4,433,220.3,432.8,209.5z M322.9,378.5  l-15.1,80.3h-83.1l-15.1-80.3H322.9z M286.3,249.1c-0.4-4.8-1-9-1.6-12.5l0,0l0-0.1c-0.2-0.9-0.3-1.7-0.5-2.4l-0.3-1.8l-0.1,0.2  l-0.7-3l0,0l0,0l0,0l-0.1-0.2c-4.5-11.7-11.4-20.4-20.6-25.9c-0.4-0.2-43.7-25.4-38.6-54.3l0.3-1.5l-5.5-19.2c-0.5-4.6-4-41,16-65.5  c7.8-9.5,18.3-16.1,31.4-19.7c6-1.6,12.4-2.7,19.5-3.1l0.8-0.1c0,0,0.5-0.1,1.3-0.2c5.3-0.8,26-2.9,41.7,7.7  c0.2,0.1,0.4,0.3,0.6,0.4c0.3,0.2,0.5,0.4,0.8,0.6c0.4,0.3,0.8,0.6,1.1,0.9c0,0,0,0,0,0c7.7,6.2,13.8,15.9,16.3,30.7l0.1,0.6  l0.3,0.8c0.2,0.4,17,44-6.8,90.8l-0.2,0.3c0,0.1-5,11.3-16.6,22.7l-5.8,5.8c-3.8,3-9.2,6.7-14.3,9.7l-0.4,0.2  c-10.5,7.5-14.7,18.8-16.3,27.1l-0.1,0.5c-0.2,1.6-0.5,4-0.8,7.2c-0.2,1.7-0.5,3.8-0.8,6.2C286.4,251,286.4,250,286.3,249.1z   M312.9,222.9c-5.5,6.2-9.1,13.3-10.6,20.6l-0.3-0.7c0.1-0.9,0.2-1.7,0.3-2.3c1.1-5.5,3.8-13.2,10.3-17.8c0.4-0.2,0.7-0.4,1.1-0.7  C313.4,222.3,313.1,222.6,312.9,222.9z M301.4,247.8l0.2,1.1c0,0.6,0,1.2,0,1.7l0,0.8c0.2,4.2,1.1,8.4,2.8,12.3  c0.9,2.6,4.2,11.5,12.7,18.9c-1.1,3.4-5.2,12-20.1,29.7l-6.8,9.3C295.6,292.9,299.5,263.5,301.4,247.8z M193.3,258.5  c-0.2-0.1-0.4-0.2-0.6-0.3c-0.3-0.1-0.7-0.3-1-0.4c-0.3-0.1-0.5-0.2-0.8-0.3c-0.2-0.1-0.5-0.2-0.7-0.2c-0.8-0.3-1.6-0.5-2.4-0.7  c-0.1,0-0.2,0-0.2-0.1c-0.5-0.1-1.1-0.3-1.6-0.4c0,0-0.1,0-0.1,0c-2.4-0.5-4.8-0.7-7.3-0.7c-5,0-10.2,0.9-15.6,2.8l-21.7,7.8  c-0.1,0-0.1,0-0.2,0c-0.4,0-0.9-0.1-1.7-0.3c-0.1,0-0.1,0-0.2-0.1c-0.1,0-0.1,0-0.2,0c-4.3-1.3-14.5-6.8-27-30.9  c-1.1-2-2.1-4.2-3.2-6.6l-0.1-0.3l-0.2-0.3c-0.5-0.8-41.5-68.6-21-109.1c0,0,0-0.1,0.1-0.1c0-0.1,0.1-0.2,0.1-0.3  c3-5.7,7.1-10.8,12.9-15.1c0.1,0,0.3-0.2,0.7-0.4c0,0,0,0,0,0c0.1,0,0.2-0.1,0.3-0.1c0.1,0,0.2-0.1,0.3-0.1c0,0,0.1,0,0.1-0.1  c1.4-0.7,3.9-1.7,7.4-2.3c0,0,0,0,0,0c0.4-0.1,0.9-0.1,1.3-0.2c0.1,0,0.2,0,0.3,0c0.4,0,0.7-0.1,1.1-0.1c0.3,0,0.5,0,0.8-0.1  c0.2,0,0.5,0,0.7,0c0.5,0,1.1,0,1.6,0c0,0,0.1,0,0.1,0c0.5,0,1,0,1.5,0c0.2,0,0.3,0,0.5,0c0.4,0,0.9,0.1,1.3,0.1c0.1,0,0.2,0,0.4,0  c1.2,0.1,2.4,0.3,3.6,0.5c14.5,2.7,37.5,14.8,65.1,56.8l0.7,1l1,0.7c0.3,0.2,27.6,20,27.6,41.6c0,7.4-3.4,14.4-10.1,20.9  c-2.2,2.2-4.8,4.3-7.8,6.4l-0.3,0.2c-1.5,1-7.8,6.2-7.7,16.3c0,1.9,0.2,4,0.7,6.2l0.1,0.5c0.8,2.6,1.9,5.4,3.3,8.5  C194.4,259,193.9,258.7,193.3,258.5z M227.2,286.2l-0.2-0.3c-11.5-16.9-18.8-30-21.7-39.1c-1.1-5.5,1.3-7.4,1.4-7.4l0.4-0.3  c15.7-11.1,23.7-24.2,23.8-38.9c0-1.1,0-2.3-0.2-3.5c11.3,11.1,23.2,18.1,24.5,18.8c6.2,3.7,11,9.8,14.3,18.2  c0.6,2.4,4.5,19.8,2.5,38.1c-4.6,30.4-8.6,54-12.1,70.1L227.2,286.2z M326.7,295.4c5.4-9.8,5.3-14.7,4.7-17.7l-0.6-2.6l0,0l0,0  l-2.2-1.5c-1.1-0.8-2.2-1.6-3.1-2.5c-2.8-2.7-4.7-5.6-5.9-7.7l-2.1-4.8c-9.2-21.3,18.8-37,20-37.6l1.2-0.6l0.8-1  c23.7-29.1,41.7-36.5,52.6-37.6c1.2-0.1,2.3-0.2,3.3-0.2c0.3,0,0.5,0,0.8,0c0.2,0,0.5,0,0.7,0c0.4,0,0.7,0,1,0.1c0.1,0,0.2,0,0.2,0  c5.9,0.6,9.2,3,9.7,3.3c0,0,0,0,0.1,0c30.6,28.4-15.3,91.6-15.8,92.3l-0.3,0.5c-3.2,5.3-6.2,9.5-8.9,12.9c-0.1,0.1-0.1,0.2-0.2,0.2  c-0.3,0.3-0.5,0.6-0.8,0.9c-0.1,0.2-0.3,0.3-0.4,0.5c-0.1,0.1-0.2,0.3-0.3,0.4c-0.8,0.9-1.6,1.8-2.4,2.6c-0.1,0.1-0.2,0.2-0.4,0.4  c-0.1,0.1-0.2,0.2-0.4,0.4c-0.2,0.2-0.5,0.5-0.7,0.7c0,0,0,0-0.1,0.1c-6.6,6.2-10.7,6.5-11.3,6.5c-0.1,0-0.1,0-0.2,0l-15.8-7.5  l-0.4-0.2c-0.1,0-0.4-0.2-0.9-0.3c-3.3-1.1-7.5-1.9-12.1-1.7C333.2,293.7,329.9,294.3,326.7,295.4z"
   class="st0" />
</svg>
