<?xml version="1.0" encoding="UTF-8" standalone="no"?>
<svg
   xmlns:dc="http://purl.org/dc/elements/1.1/"
   xmlns:cc="http://creativecommons.org/ns#"
   xmlns:rdf="http://www.w3.org/1999/02/22-rdf-syntax-ns#"
   xmlns:svg="http://www.w3.org/2000/svg"
   xmlns="http://www.w3.org/2000/svg"
   xmlns:sodipodi="http://sodipodi.sourceforge.net/DTD/sodipodi-0.dtd"
   xmlns:inkscape="http://www.inkscape.org/namespaces/inkscape"
   inkscape:version="1.0 (4035a4fb49, 2020-05-01)"
   sodipodi:docname="simulation_pret.svg"
   xml:space="preserve"
   style="enable-background:new 0 0 500 500;"
   viewBox="0 0 500 500"
   y="0px"
   x="0px"
   id="Calque_1"
   version="1.1"><metadata
   id="metadata11"><rdf:RDF><cc:Work
       rdf:about=""><dc:format>image/svg+xml</dc:format><dc:type
         rdf:resource="http://purl.org/dc/dcmitype/StillImage" /><dc:title></dc:title></cc:Work></rdf:RDF></metadata><defs
   id="defs9" /><sodipodi:namedview
   inkscape:current-layer="Calque_1"
   inkscape:window-maximized="1"
   inkscape:window-y="-8"
   inkscape:window-x="-8"
   inkscape:cy="250"
   inkscape:cx="250"
   inkscape:zoom="1.506"
   inkscape:pagecheckerboard="true"
   showgrid="false"
   id="namedview7"
   inkscape:window-height="1137"
   inkscape:window-width="1920"
   inkscape:pageshadow="2"
   inkscape:pageopacity="0"
   guidetolerance="10"
   gridtolerance="10"
   objecttolerance="10"
   borderopacity="1"
   bordercolor="#666666"
   pagecolor="#000000" />
<style
   id="style2"
   type="text/css">
	.st0{fill:#029543;}
</style>
<path
   style="fill:#ffffff;fill-opacity:1"
   id="path4"
   d="M449.6,153.3l-51.4-34.3V64.3c0-5.1-4.2-9.3-9.3-9.3h-39c-5.1,0-9.3,4.2-9.3,9.3v16.4l-71.3-47.5  c-3.1-2.1-7.2-2.1-10.3,0L79.3,153c-5.7,3.7-9.6,9.4-11,16.1c-1.4,6.7-0.1,13.5,3.6,19.2c7.7,11.8,23.5,15.1,35.3,7.4l23.1-15.4  v146.2h-10.9c-0.7-4.4-4.5-7.7-9.1-7.7H48.5c-5.1,0-9.2,4.1-9.2,9.2v108c0,5.1,4.1,9.2,9.2,9.2h61.7c5.1,0,9.2-4.1,9.2-9.2v-0.7  l55.5,23c16.4,6.7,33.7,10,51,10c16.3,0,32.7-3,48.3-8.9l119.1-45.4c7.4-2.8,13.4-8.6,16.6-15.8c3.3-7.3,3.4-15.8,0.5-23.3  c-2.5-6.3-7.1-11.5-13-14.8V179.8l23.4,15.6c11.6,7.9,27.5,4.9,35.4-6.7C464.2,177.1,461.2,161.2,449.6,153.3z M359.2,93.1V73.6  h20.4v33.1L359.2,93.1z M321.7,367.5h28.2l-26.1,11.1c0-0.2,0-0.3,0-0.5C323.8,374.4,323.1,370.8,321.7,367.5z M148,168.4L264.2,91  l115.4,76.9v181.8h-82.8c-0.5,0-1,0-1.5,0h-59.8c-5.8,0-11.6-1.4-16.8-4c-21.9-10.9-45.4-17.2-69.9-18.8c-0.1,0-0.3,0-0.8,0V168.4z   M138.1,345c25,0.1,50,6.1,72.4,17.2c7.7,3.8,16.4,5.9,25,5.9h59.8c5.6,0,10,4.6,10,10.1c0,4.7-3.2,8.6-7.7,9.7  c-0.3,0-0.7,0.1-1,0.1c-0.6,0.1-1.2,0.2-1.8,0.2h-93.6v18.4h94c0.2,0,0.3,0,0.5,0c6.3-0.1,12.5-1.4,18.4-3.9l64.5-27.4  c2.7-1.1,5.8-1.1,8.4,0c2.8,1.2,5,3.5,6.1,6.4c1.2,2.9,1.1,6.2-0.2,9.1v0c-1.2,2.8-3.5,5-6.3,6l-119.1,45.4  c-27.8,10.6-58.2,10.3-85.7-0.9l-62.5-26h0V345h10.8v0H138.1z M438.8,180l-0.6,0.3c-2.2,1.2-5,1.1-7.1-0.3L269.4,72.1  c-3.1-2.1-7.2-2.1-10.3,0L97.2,180c-1.5,1-3.4,1.4-5.2,1c-1.8-0.4-3.4-1.4-4.4-3c-0.8-1.1-1.2-2.5-1.2-3.8c0-2.3,1.1-4.5,3.1-5.8  L264.2,52l174.6,116.4c1.9,1.3,3.1,3.4,3.1,5.8C441.9,176.6,440.8,178.7,438.8,180z M101,337.3v89.5H57.7v-89.5H101z"
   class="st0" />
</svg>
